<svg id="Layer_1" data-name="Layer 1" xmlns="http://www.w3.org/2000/svg" viewBox="0 0 425.85 63.8"><defs><style>.cls-1,.cls-2{fill:#fff;}.cls-1{opacity:0.7;}</style></defs><title>Artboard 1</title><polyline class="cls-1" points="326.12 42.79 307.11 2.17 286.16 2.17 315.98 63.8"/><polyline class="cls-2" points="316.59 63.03 337.64 63.03 366.23 2.1 345.27 2.1 326.18 42.72"/><path class="cls-2" d="M374.43,2.24,345.84,63.17h21l3.74-8h30.62l3.74,8h21L397.26,2.24Zm3.65,36.88,7.72-16.49,7.8,16.49Z"/><polygon class="cls-2" points="0 0 0 60.92 54.42 60.92 54.42 43.22 19.6 43.22 19.6 38.5 43.51 38.5 43.51 22.42 19.6 22.42 19.6 17.71 54.42 17.71 54.42 0 0 0 0 0"/><polyline class="cls-1" points="157.97 0 137.98 0 137.98 60.92 157.97 60.92 157.97 28.02"/><polyline class="cls-2" points="157.81 28.02 185.75 60.92 205.73 60.92 205.73 0 185.75 0 185.75 32.9 157.81 0"/><polyline class="cls-1" points="81.59 0 61.6 0 61.6 60.92 81.59 60.92 81.59 28.02"/><polyline class="cls-2" points="81.43 28.02 109.37 60.92 129.36 60.92 129.36 0 109.37 0 109.37 32.9 81.43 0"/><path class="cls-2" d="M241.25,2.65c-18.28,0-28.67,6.25-28.67,23.8V39.77c0,17.55,10.4,23.8,28.67,23.8h17.38c18.28,0,28.68-6.25,28.68-23.8V26.45c0-17.55-10.4-23.8-28.68-23.8Zm0,43.22c-5.36,0-8.69-1.71-8.69-6.09V26.45c0-4.39,3.33-6.09,8.69-6.09h17.38c5.36,0,8.69,1.71,8.69,6.09V39.77c0,4.39-3.33,6.09-8.69,6.09Z"/></svg>