<?xml version="1.0" encoding="utf-8"?>
<!-- Generator: Adobe Illustrator 19.0.0, SVG Export Plug-In . SVG Version: 6.00 Build 0)  -->
<svg version="1.1" id="Layer_1" xmlns="http://www.w3.org/2000/svg" xmlns:xlink="http://www.w3.org/1999/xlink" x="0px" y="0px"
	 width="425.8px" height="63.8px" viewBox="0 0 425.8 63.8" style="enable-background:new 0 0 425.8 63.8;" xml:space="preserve">
<style type="text/css">
	.st0{fill:#73CBE1;}
	.st1{fill:#FFFFFF;}
</style>
<g>
	<polyline class="st0" points="326.1,42.8 307.1,2.2 286.2,2.2 316,63.8 	"/>
	<polyline class="st1" points="316.6,63 337.6,63 366.2,2.1 345.3,2.1 326.2,42.7 	"/>
	<path class="st1" d="M374.4,2.2l-28.6,60.9h21l3.7-8h30.6l3.7,8h21L397.3,2.2H374.4L374.4,2.2z M378.1,39.1l7.7-16.5l7.8,16.5
		H378.1L378.1,39.1z"/>
	<polygon class="st1" points="0,0 0,60.9 54.4,60.9 54.4,43.2 19.6,43.2 19.6,38.5 43.5,38.5 43.5,22.4 19.6,22.4 19.6,17.7 
		54.4,17.7 54.4,0 0,0 	"/>
	<polyline class="st0" points="158,0 138,0 138,60.9 158,60.9 158,28 	"/>
	<polyline class="st1" points="157.8,28 185.8,60.9 205.7,60.9 205.7,0 185.8,0 185.8,32.9 157.8,0 	"/>
	<polyline class="st0" points="81.6,0 61.6,0 61.6,60.9 81.6,60.9 81.6,28 	"/>
	<polyline class="st1" points="81.4,28 109.4,60.9 129.4,60.9 129.4,0 109.4,0 109.4,32.9 81.4,0 	"/>
	<path class="st1" d="M241.2,2.6c-18.3,0-28.7,6.3-28.7,23.8v13.3c0,17.5,10.4,23.8,28.7,23.8h17.4c18.3,0,28.7-6.3,28.7-23.8V26.4
		c0-17.5-10.4-23.8-28.7-23.8H241.2L241.2,2.6z M241.2,45.9c-5.4,0-8.7-1.7-8.7-6.1V26.4c0-4.4,3.3-6.1,8.7-6.1h17.4
		c5.4,0,8.7,1.7,8.7,6.1v13.3c0,4.4-3.3,6.1-8.7,6.1H241.2L241.2,45.9z"/>
</g>
</svg>
